<mxfile host="www.draw.io" modified="2020-03-03T06:26:03.037Z" agent="Mozilla/5.0 (Windows NT 10.0; Win64; x64) AppleWebKit/537.36 (KHTML, like Gecko) Chrome/80.0.3987.116 Safari/537.36 Edg/80.0.361.57" etag="tDrrCQlA-DLOaCcAFcZz" version="12.7.9" type="github" pages="2">
  <diagram id="fWJk0PM2tN3Tnw3MpeeP" name="Page-1">
    <mxGraphModel dx="1580" dy="1043" grid="0" gridSize="10" guides="1" tooltips="1" connect="1" arrows="1" fold="1" page="1" pageScale="1" pageWidth="4681" pageHeight="3300" math="0" shadow="0">
      <root>
        <mxCell id="0" />
        <mxCell id="1" parent="0" />
        <mxCell id="atq1IVaOD67y55b1JIkv-8" value="" style="rounded=0;whiteSpace=wrap;html=1;" vertex="1" parent="1">
          <mxGeometry x="140" y="90" width="440" height="486.5" as="geometry" />
        </mxCell>
        <mxCell id="atq1IVaOD67y55b1JIkv-1" value="ML" style="outlineConnect=0;dashed=0;verticalLabelPosition=bottom;verticalAlign=top;align=center;html=1;shape=mxgraph.aws3.machine_learning;fillColor=#2E73B8;gradientColor=none;" vertex="1" parent="1">
          <mxGeometry x="430" y="310" width="76.5" height="93" as="geometry" />
        </mxCell>
        <mxCell id="atq1IVaOD67y55b1JIkv-2" value="Aster&lt;br&gt;DB" style="shape=process;whiteSpace=wrap;html=1;backgroundOutline=1;" vertex="1" parent="1">
          <mxGeometry x="210" y="267" width="120" height="60" as="geometry" />
        </mxCell>
        <mxCell id="atq1IVaOD67y55b1JIkv-3" value="Vertica&lt;br&gt;DB" style="shape=process;whiteSpace=wrap;html=1;backgroundOutline=1;" vertex="1" parent="1">
          <mxGeometry x="210" y="380" width="120" height="60" as="geometry" />
        </mxCell>
        <mxCell id="atq1IVaOD67y55b1JIkv-4" value="" style="endArrow=classic;html=1;entryX=1;entryY=0.5;entryDx=0;entryDy=0;exitX=0;exitY=0.79;exitDx=0;exitDy=0;exitPerimeter=0;" edge="1" parent="1" source="atq1IVaOD67y55b1JIkv-1" target="atq1IVaOD67y55b1JIkv-3">
          <mxGeometry width="50" height="50" relative="1" as="geometry">
            <mxPoint x="440" y="540" as="sourcePoint" />
            <mxPoint x="490" y="490" as="targetPoint" />
          </mxGeometry>
        </mxCell>
        <mxCell id="atq1IVaOD67y55b1JIkv-5" value="" style="endArrow=classic;html=1;entryX=1;entryY=0.5;entryDx=0;entryDy=0;" edge="1" parent="1" source="atq1IVaOD67y55b1JIkv-1" target="atq1IVaOD67y55b1JIkv-2">
          <mxGeometry width="50" height="50" relative="1" as="geometry">
            <mxPoint x="380" y="320" as="sourcePoint" />
            <mxPoint x="430" y="270" as="targetPoint" />
          </mxGeometry>
        </mxCell>
        <mxCell id="atq1IVaOD67y55b1JIkv-6" value="Customer Profile&lt;br&gt;Data" style="text;html=1;strokeColor=none;fillColor=none;align=center;verticalAlign=middle;whiteSpace=wrap;rounded=0;" vertex="1" parent="1">
          <mxGeometry x="220" y="230" width="110" height="20" as="geometry" />
        </mxCell>
        <mxCell id="atq1IVaOD67y55b1JIkv-7" value="Account Plan Updates" style="text;html=1;strokeColor=none;fillColor=none;align=center;verticalAlign=middle;whiteSpace=wrap;rounded=0;" vertex="1" parent="1">
          <mxGeometry x="220" y="460" width="110" height="20" as="geometry" />
        </mxCell>
        <mxCell id="atq1IVaOD67y55b1JIkv-9" value="Cassandra" style="shape=cylinder;whiteSpace=wrap;html=1;boundedLbl=1;backgroundOutline=1;fillColor=#647687;strokeColor=#314354;fontColor=#ffffff;" vertex="1" parent="1">
          <mxGeometry x="650" y="327" width="60" height="80" as="geometry" />
        </mxCell>
        <mxCell id="atq1IVaOD67y55b1JIkv-10" value="&lt;div style=&quot;text-align: left ; font-size: 15px&quot;&gt;&lt;b&gt;&lt;font style=&quot;font-size: 15px&quot;&gt;Upgrade Propensity Engine&lt;/font&gt;&lt;/b&gt;&lt;/div&gt;&lt;div style=&quot;text-align: left ; font-size: 15px&quot;&gt;&lt;br&gt;&lt;/div&gt;&lt;div style=&quot;text-align: left&quot;&gt;&lt;span&gt;Scala Jobs to data query and cleanse the data.&lt;/span&gt;&lt;/div&gt;&lt;div style=&quot;text-align: left&quot;&gt;&lt;span&gt;GBM - Gradient Boosting Machine (ML Algorithm)&lt;/span&gt;&lt;/div&gt;&lt;div style=&quot;text-align: left&quot;&gt;&lt;span&gt;Hadoop - Map reduce file storage.&lt;/span&gt;&lt;/div&gt;&lt;div style=&quot;text-align: left&quot;&gt;&lt;span&gt;H2O - Prepare GBM Model&lt;/span&gt;&lt;/div&gt;" style="text;html=1;strokeColor=none;fillColor=none;align=center;verticalAlign=middle;whiteSpace=wrap;rounded=0;" vertex="1" parent="1">
          <mxGeometry x="120" y="100" width="440" height="90" as="geometry" />
        </mxCell>
        <mxCell id="atq1IVaOD67y55b1JIkv-11" value="" style="endArrow=classic;html=1;entryX=0;entryY=0.5;entryDx=0;entryDy=0;exitX=1.046;exitY=0.634;exitDx=0;exitDy=0;exitPerimeter=0;" edge="1" parent="1" source="atq1IVaOD67y55b1JIkv-1" target="atq1IVaOD67y55b1JIkv-9">
          <mxGeometry width="50" height="50" relative="1" as="geometry">
            <mxPoint x="540" y="400" as="sourcePoint" />
            <mxPoint x="590" y="350" as="targetPoint" />
          </mxGeometry>
        </mxCell>
        <mxCell id="atq1IVaOD67y55b1JIkv-12" value="&lt;h1&gt;Upgrade Propensity Data&lt;/h1&gt;&lt;p&gt;CTN&#39;s likely to upgrade. Top 20%. Approx 3-4 million.&lt;/p&gt;" style="text;html=1;strokeColor=none;fillColor=none;spacing=5;spacingTop=-20;whiteSpace=wrap;overflow=hidden;rounded=0;" vertex="1" parent="1">
          <mxGeometry x="590" y="247" width="300" height="80" as="geometry" />
        </mxCell>
        <mxCell id="atq1IVaOD67y55b1JIkv-13" value="" style="shape=image;html=1;verticalAlign=top;verticalLabelPosition=bottom;labelBackgroundColor=#ffffff;imageAspect=0;aspect=fixed;image=https://cdn4.iconfinder.com/data/icons/evil-icons-user-interface/64/calendar-128.png" vertex="1" parent="1">
          <mxGeometry x="1050" y="160" width="88" height="88" as="geometry" />
        </mxCell>
        <mxCell id="atq1IVaOD67y55b1JIkv-14" value="" style="shape=image;html=1;verticalAlign=top;verticalLabelPosition=bottom;labelBackgroundColor=#ffffff;imageAspect=0;aspect=fixed;image=https://cdn4.iconfinder.com/data/icons/evil-icons-user-interface/64/clock-128.png" vertex="1" parent="1">
          <mxGeometry x="960" y="165" width="78" height="78" as="geometry" />
        </mxCell>
        <mxCell id="atq1IVaOD67y55b1JIkv-15" value="" style="rounded=0;whiteSpace=wrap;html=1;" vertex="1" parent="1">
          <mxGeometry x="920" y="260" width="280" height="310" as="geometry" />
        </mxCell>
        <mxCell id="atq1IVaOD67y55b1JIkv-16" value="DPL&lt;br&gt;Upgrade&lt;br&gt;Eligibility" style="shape=hexagon;perimeter=hexagonPerimeter2;whiteSpace=wrap;html=1;" vertex="1" parent="1">
          <mxGeometry x="1000" y="327" width="120" height="80" as="geometry" />
        </mxCell>
        <mxCell id="atq1IVaOD67y55b1JIkv-17" value="MRE" style="shape=process;whiteSpace=wrap;html=1;backgroundOutline=1;" vertex="1" parent="1">
          <mxGeometry x="1250" y="337" width="120" height="60" as="geometry" />
        </mxCell>
        <mxCell id="atq1IVaOD67y55b1JIkv-18" value="" style="endArrow=classic;html=1;exitX=1;exitY=0.5;exitDx=0;exitDy=0;entryX=0;entryY=0.5;entryDx=0;entryDy=0;" edge="1" parent="1" source="atq1IVaOD67y55b1JIkv-16" target="atq1IVaOD67y55b1JIkv-17">
          <mxGeometry width="50" height="50" relative="1" as="geometry">
            <mxPoint x="1150" y="450" as="sourcePoint" />
            <mxPoint x="1200" y="400" as="targetPoint" />
          </mxGeometry>
        </mxCell>
        <mxCell id="atq1IVaOD67y55b1JIkv-19" value="" style="endArrow=classic;html=1;entryX=1;entryY=0.5;entryDx=0;entryDy=0;exitX=0;exitY=0.5;exitDx=0;exitDy=0;" edge="1" parent="1" source="atq1IVaOD67y55b1JIkv-16" target="atq1IVaOD67y55b1JIkv-9">
          <mxGeometry width="50" height="50" relative="1" as="geometry">
            <mxPoint x="860" y="440" as="sourcePoint" />
            <mxPoint x="910" y="390" as="targetPoint" />
          </mxGeometry>
        </mxCell>
        <mxCell id="atq1IVaOD67y55b1JIkv-20" value="Upgrade&lt;br&gt;Eligibility&lt;br&gt;Data" style="shape=cylinder;whiteSpace=wrap;html=1;boundedLbl=1;backgroundOutline=1;fillColor=#f0a30a;strokeColor=#BD7000;fontColor=#ffffff;" vertex="1" parent="1">
          <mxGeometry x="1030" y="450" width="60" height="80" as="geometry" />
        </mxCell>
        <mxCell id="atq1IVaOD67y55b1JIkv-21" value="" style="endArrow=classic;html=1;entryX=0.5;entryY=0;entryDx=0;entryDy=0;exitX=0.5;exitY=1;exitDx=0;exitDy=0;" edge="1" parent="1" source="atq1IVaOD67y55b1JIkv-16" target="atq1IVaOD67y55b1JIkv-20">
          <mxGeometry width="50" height="50" relative="1" as="geometry">
            <mxPoint x="970" y="470" as="sourcePoint" />
            <mxPoint x="1020" y="420" as="targetPoint" />
          </mxGeometry>
        </mxCell>
        <mxCell id="atq1IVaOD67y55b1JIkv-22" value="&lt;h1&gt;DPL Jobs&lt;/h1&gt;&lt;p&gt;DPL will utilize the CTN numbers from ML output and invokes MRE and get the Upgrade eligibility data and store in DB.&lt;/p&gt;&lt;p&gt;&lt;br&gt;&lt;/p&gt;" style="text;html=1;strokeColor=none;fillColor=none;spacing=5;spacingTop=-20;whiteSpace=wrap;overflow=hidden;rounded=0;" vertex="1" parent="1">
          <mxGeometry x="1215" y="140" width="190" height="120" as="geometry" />
        </mxCell>
        <mxCell id="atq1IVaOD67y55b1JIkv-23" value="Upgrade&lt;br&gt;Options&lt;br&gt;Ms" style="shape=hexagon;perimeter=hexagonPerimeter2;whiteSpace=wrap;html=1;" vertex="1" parent="1">
          <mxGeometry x="1000" y="620" width="120" height="80" as="geometry" />
        </mxCell>
        <mxCell id="atq1IVaOD67y55b1JIkv-24" value="" style="endArrow=classic;html=1;entryX=0.5;entryY=1;entryDx=0;entryDy=0;exitX=0.502;exitY=0.004;exitDx=0;exitDy=0;exitPerimeter=0;" edge="1" parent="1" source="atq1IVaOD67y55b1JIkv-26" target="atq1IVaOD67y55b1JIkv-23">
          <mxGeometry width="50" height="50" relative="1" as="geometry">
            <mxPoint x="770" y="550" as="sourcePoint" />
            <mxPoint x="820" y="500" as="targetPoint" />
            <Array as="points">
              <mxPoint x="741" y="760" />
              <mxPoint x="1060" y="760" />
            </Array>
          </mxGeometry>
        </mxCell>
        <mxCell id="atq1IVaOD67y55b1JIkv-25" value="" style="endArrow=none;dashed=1;html=1;strokeWidth=2;" edge="1" parent="1">
          <mxGeometry width="50" height="50" relative="1" as="geometry">
            <mxPoint x="135" y="720" as="sourcePoint" />
            <mxPoint x="1405" y="720" as="targetPoint" />
          </mxGeometry>
        </mxCell>
        <mxCell id="atq1IVaOD67y55b1JIkv-26" value="" style="strokeWidth=1;shadow=0;dashed=0;align=center;html=1;shape=mxgraph.mockup.containers.browserWindow;rSize=0;strokeColor=#666666;strokeColor2=#008cff;strokeColor3=#c4c4c4;mainText=,;recursiveResize=0;" vertex="1" parent="1">
          <mxGeometry x="515" y="780" width="450" height="280" as="geometry" />
        </mxCell>
        <mxCell id="atq1IVaOD67y55b1JIkv-27" value="ATT" style="strokeWidth=1;shadow=0;dashed=0;align=center;html=1;shape=mxgraph.mockup.containers.anchor;fontSize=17;fontColor=#666666;align=left;" vertex="1" parent="atq1IVaOD67y55b1JIkv-26">
          <mxGeometry x="60" y="12" width="110" height="26" as="geometry" />
        </mxCell>
        <mxCell id="atq1IVaOD67y55b1JIkv-28" value="https://www.att.com/upgrade" style="strokeWidth=1;shadow=0;dashed=0;align=center;html=1;shape=mxgraph.mockup.containers.anchor;rSize=0;fontSize=17;fontColor=#666666;align=left;" vertex="1" parent="atq1IVaOD67y55b1JIkv-26">
          <mxGeometry x="130" y="60" width="250" height="26" as="geometry" />
        </mxCell>
        <mxCell id="atq1IVaOD67y55b1JIkv-29" value="Apple" style="whiteSpace=wrap;html=1;aspect=fixed;" vertex="1" parent="atq1IVaOD67y55b1JIkv-26">
          <mxGeometry x="60" y="140" width="80" height="80" as="geometry" />
        </mxCell>
        <mxCell id="atq1IVaOD67y55b1JIkv-30" value="CTN 1&lt;br&gt;" style="text;html=1;strokeColor=none;fillColor=none;align=center;verticalAlign=middle;whiteSpace=wrap;rounded=0;" vertex="1" parent="atq1IVaOD67y55b1JIkv-26">
          <mxGeometry x="170" y="150" width="160" height="60" as="geometry" />
        </mxCell>
        <mxCell id="atq1IVaOD67y55b1JIkv-35" value="Continue" style="rounded=1;whiteSpace=wrap;html=1;fillColor=#dae8fc;strokeColor=#6c8ebf;gradientColor=#7ea6e0;" vertex="1" parent="atq1IVaOD67y55b1JIkv-26">
          <mxGeometry x="193" y="241" width="124" height="32" as="geometry" />
        </mxCell>
        <mxCell id="atq1IVaOD67y55b1JIkv-31" value="" style="endArrow=classic;html=1;strokeWidth=1;exitX=0;exitY=0.5;exitDx=0;exitDy=0;entryX=0.117;entryY=0.8;entryDx=0;entryDy=0;entryPerimeter=0;" edge="1" parent="1" source="atq1IVaOD67y55b1JIkv-23" target="atq1IVaOD67y55b1JIkv-16">
          <mxGeometry width="50" height="50" relative="1" as="geometry">
            <mxPoint x="820" y="660" as="sourcePoint" />
            <mxPoint x="870" y="610" as="targetPoint" />
            <Array as="points">
              <mxPoint x="850" y="660" />
              <mxPoint x="850" y="391" />
            </Array>
          </mxGeometry>
        </mxCell>
        <mxCell id="atq1IVaOD67y55b1JIkv-32" value="First Check the DPL for Upgrade Eligibility" style="text;html=1;strokeColor=none;fillColor=none;align=center;verticalAlign=middle;whiteSpace=wrap;rounded=0;" vertex="1" parent="1">
          <mxGeometry x="710" y="510" width="150" height="40" as="geometry" />
        </mxCell>
        <mxCell id="atq1IVaOD67y55b1JIkv-33" value="" style="endArrow=classic;html=1;strokeWidth=1;exitX=1;exitY=0.5;exitDx=0;exitDy=0;entryX=0.5;entryY=1;entryDx=0;entryDy=0;" edge="1" parent="1" source="atq1IVaOD67y55b1JIkv-23" target="atq1IVaOD67y55b1JIkv-17">
          <mxGeometry width="50" height="50" relative="1" as="geometry">
            <mxPoint x="1280" y="630" as="sourcePoint" />
            <mxPoint x="1330" y="580" as="targetPoint" />
            <Array as="points">
              <mxPoint x="1310" y="660" />
            </Array>
          </mxGeometry>
        </mxCell>
        <mxCell id="atq1IVaOD67y55b1JIkv-34" value="If the data not present invoke MRE" style="text;html=1;strokeColor=none;fillColor=none;align=center;verticalAlign=middle;whiteSpace=wrap;rounded=0;" vertex="1" parent="1">
          <mxGeometry x="1150" y="630" width="130" height="20" as="geometry" />
        </mxCell>
      </root>
    </mxGraphModel>
  </diagram>
  <diagram id="HMiVxgbdFiepi41jzfJE" name="Page-2">
    <mxGraphModel dx="1422" dy="939" grid="0" gridSize="10" guides="1" tooltips="1" connect="1" arrows="1" fold="1" page="1" pageScale="1" pageWidth="4681" pageHeight="3300" math="0" shadow="0">
      <root>
        <mxCell id="-EnwCNDstKFtMvuGvvX0-0" />
        <mxCell id="-EnwCNDstKFtMvuGvvX0-1" parent="-EnwCNDstKFtMvuGvvX0-0" />
        <mxCell id="-EnwCNDstKFtMvuGvvX0-3" value="" style="shape=image;html=1;verticalAlign=top;verticalLabelPosition=bottom;labelBackgroundColor=#ffffff;imageAspect=0;aspect=fixed;image=https://cdn4.iconfinder.com/data/icons/technology-83/1000/marketing_funnel_conversion_sale_business_sales_sales_funnel-128.png" vertex="1" parent="-EnwCNDstKFtMvuGvvX0-1">
          <mxGeometry x="140" y="230" width="128" height="128" as="geometry" />
        </mxCell>
        <mxCell id="-EnwCNDstKFtMvuGvvX0-4" value="&lt;div style=&quot;text-align: left&quot;&gt;&lt;span&gt;&lt;b&gt;&lt;font style=&quot;font-size: 18px&quot;&gt;Funnel&lt;/font&gt;&lt;/b&gt;&lt;/span&gt;&lt;/div&gt;&lt;div style=&quot;text-align: left&quot;&gt;&lt;span&gt;&lt;b&gt;&lt;font style=&quot;font-size: 18px&quot;&gt;&lt;br&gt;&lt;/font&gt;&lt;/b&gt;&lt;/span&gt;&lt;/div&gt;&lt;div style=&quot;text-align: left&quot;&gt;&lt;span&gt;1. Prpduct List Pages&lt;/span&gt;&lt;/div&gt;&lt;div style=&quot;text-align: left&quot;&gt;&lt;span&gt;2. Product Detail Pages&lt;/span&gt;&lt;/div&gt;&lt;div style=&quot;text-align: left&quot;&gt;&lt;span&gt;3. Insurance Selection&lt;/span&gt;&lt;/div&gt;&lt;div style=&quot;text-align: left&quot;&gt;&lt;span&gt;4. Upsell&lt;/span&gt;&lt;/div&gt;&lt;div style=&quot;text-align: left&quot;&gt;&lt;span&gt;5. Cart&lt;/span&gt;&lt;/div&gt;&lt;div style=&quot;text-align: left&quot;&gt;&lt;span&gt;6. Checkout&lt;/span&gt;&lt;/div&gt;" style="text;html=1;strokeColor=none;fillColor=none;align=center;verticalAlign=middle;whiteSpace=wrap;rounded=0;" vertex="1" parent="-EnwCNDstKFtMvuGvvX0-1">
          <mxGeometry x="280" y="230" width="140" height="110" as="geometry" />
        </mxCell>
        <mxCell id="-EnwCNDstKFtMvuGvvX0-5" value="&lt;h1&gt;&lt;span&gt;Push Upgrade CTN selection/Account Validation later to the funnel&lt;/span&gt;&lt;br&gt;&lt;/h1&gt;" style="text;html=1;strokeColor=none;fillColor=none;spacing=5;spacingTop=-20;whiteSpace=wrap;overflow=hidden;rounded=0;" vertex="1" parent="-EnwCNDstKFtMvuGvvX0-1">
          <mxGeometry x="344" y="117" width="789" height="120" as="geometry" />
        </mxCell>
        <mxCell id="-EnwCNDstKFtMvuGvvX0-6" value="" style="rounded=0;whiteSpace=wrap;html=1;" vertex="1" parent="-EnwCNDstKFtMvuGvvX0-1">
          <mxGeometry x="190" y="400" width="160" height="290" as="geometry" />
        </mxCell>
        <mxCell id="-EnwCNDstKFtMvuGvvX0-7" value="" style="verticalLabelPosition=bottom;html=1;verticalAlign=top;align=center;strokeColor=none;fillColor=#00BEF2;shape=mxgraph.azure.mobile;pointerEvents=1;" vertex="1" parent="-EnwCNDstKFtMvuGvvX0-1">
          <mxGeometry x="220" y="440" width="35" height="50" as="geometry" />
        </mxCell>
        <mxCell id="-EnwCNDstKFtMvuGvvX0-8" value="" style="verticalLabelPosition=bottom;html=1;verticalAlign=top;align=center;strokeColor=none;fillColor=#00BEF2;shape=mxgraph.azure.mobile;pointerEvents=1;" vertex="1" parent="-EnwCNDstKFtMvuGvvX0-1">
          <mxGeometry x="290" y="440" width="35" height="50" as="geometry" />
        </mxCell>
        <mxCell id="-EnwCNDstKFtMvuGvvX0-9" value="" style="verticalLabelPosition=bottom;html=1;verticalAlign=top;align=center;strokeColor=none;fillColor=#00BEF2;shape=mxgraph.azure.mobile;pointerEvents=1;" vertex="1" parent="-EnwCNDstKFtMvuGvvX0-1">
          <mxGeometry x="220" y="510" width="35" height="50" as="geometry" />
        </mxCell>
        <mxCell id="-EnwCNDstKFtMvuGvvX0-10" value="" style="verticalLabelPosition=bottom;html=1;verticalAlign=top;align=center;strokeColor=none;fillColor=#00BEF2;shape=mxgraph.azure.mobile;pointerEvents=1;" vertex="1" parent="-EnwCNDstKFtMvuGvvX0-1">
          <mxGeometry x="290" y="510" width="35" height="50" as="geometry" />
        </mxCell>
        <mxCell id="-EnwCNDstKFtMvuGvvX0-11" value="" style="verticalLabelPosition=bottom;html=1;verticalAlign=top;align=center;strokeColor=none;fillColor=#00BEF2;shape=mxgraph.azure.mobile;pointerEvents=1;" vertex="1" parent="-EnwCNDstKFtMvuGvvX0-1">
          <mxGeometry x="290" y="440" width="35" height="50" as="geometry" />
        </mxCell>
        <mxCell id="-EnwCNDstKFtMvuGvvX0-12" value="" style="verticalLabelPosition=bottom;html=1;verticalAlign=top;align=center;strokeColor=none;fillColor=#00BEF2;shape=mxgraph.azure.mobile;pointerEvents=1;" vertex="1" parent="-EnwCNDstKFtMvuGvvX0-1">
          <mxGeometry x="490" y="440" width="35" height="50" as="geometry" />
        </mxCell>
        <mxCell id="-EnwCNDstKFtMvuGvvX0-13" value="" style="verticalLabelPosition=bottom;html=1;verticalAlign=top;align=center;strokeColor=none;fillColor=#00BEF2;shape=mxgraph.azure.mobile;pointerEvents=1;" vertex="1" parent="-EnwCNDstKFtMvuGvvX0-1">
          <mxGeometry x="490" y="510" width="35" height="50" as="geometry" />
        </mxCell>
        <mxCell id="-EnwCNDstKFtMvuGvvX0-14" value="" style="verticalLabelPosition=bottom;html=1;verticalAlign=top;align=center;strokeColor=none;fillColor=#00BEF2;shape=mxgraph.azure.mobile;pointerEvents=1;" vertex="1" parent="-EnwCNDstKFtMvuGvvX0-1">
          <mxGeometry x="420" y="510" width="35" height="50" as="geometry" />
        </mxCell>
        <mxCell id="-EnwCNDstKFtMvuGvvX0-15" value="" style="verticalLabelPosition=bottom;html=1;verticalAlign=top;align=center;strokeColor=none;fillColor=#00BEF2;shape=mxgraph.azure.mobile;pointerEvents=1;" vertex="1" parent="-EnwCNDstKFtMvuGvvX0-1">
          <mxGeometry x="420" y="440" width="35" height="50" as="geometry" />
        </mxCell>
        <mxCell id="-EnwCNDstKFtMvuGvvX0-16" value="" style="rounded=0;whiteSpace=wrap;html=1;" vertex="1" parent="-EnwCNDstKFtMvuGvvX0-1">
          <mxGeometry x="390" y="400" width="180" height="290" as="geometry" />
        </mxCell>
        <mxCell id="-EnwCNDstKFtMvuGvvX0-17" value="" style="verticalLabelPosition=bottom;html=1;verticalAlign=top;align=center;strokeColor=none;fillColor=#00BEF2;shape=mxgraph.azure.mobile;pointerEvents=1;" vertex="1" parent="-EnwCNDstKFtMvuGvvX0-1">
          <mxGeometry x="410" y="440" width="35" height="50" as="geometry" />
        </mxCell>
        <mxCell id="-EnwCNDstKFtMvuGvvX0-18" value="UP - $30/mo" style="rounded=0;whiteSpace=wrap;html=1;" vertex="1" parent="-EnwCNDstKFtMvuGvvX0-1">
          <mxGeometry x="455" y="520" width="90" height="30" as="geometry" />
        </mxCell>
        <mxCell id="-EnwCNDstKFtMvuGvvX0-19" value="NEW - $10/mo" style="rounded=0;whiteSpace=wrap;html=1;" vertex="1" parent="-EnwCNDstKFtMvuGvvX0-1">
          <mxGeometry x="455" y="480" width="90" height="30" as="geometry" />
        </mxCell>
        <mxCell id="-EnwCNDstKFtMvuGvvX0-20" value="AL - $10/mo" style="rounded=0;whiteSpace=wrap;html=1;" vertex="1" parent="-EnwCNDstKFtMvuGvvX0-1">
          <mxGeometry x="455" y="560" width="90" height="30" as="geometry" />
        </mxCell>
        <mxCell id="-EnwCNDstKFtMvuGvvX0-21" value="Continue" style="rounded=0;whiteSpace=wrap;html=1;gradientColor=#97d077;fillColor=#d5e8d4;strokeColor=#82b366;" vertex="1" parent="-EnwCNDstKFtMvuGvvX0-1">
          <mxGeometry x="455" y="620" width="90" height="30" as="geometry" />
        </mxCell>
        <mxCell id="-EnwCNDstKFtMvuGvvX0-22" value="&lt;b&gt;PLP&lt;/b&gt;" style="text;html=1;strokeColor=none;fillColor=none;align=center;verticalAlign=middle;whiteSpace=wrap;rounded=0;" vertex="1" parent="-EnwCNDstKFtMvuGvvX0-1">
          <mxGeometry x="250" y="400" width="40" height="20" as="geometry" />
        </mxCell>
        <mxCell id="-EnwCNDstKFtMvuGvvX0-23" value="&lt;b&gt;PDP&lt;/b&gt;" style="text;html=1;strokeColor=none;fillColor=none;align=center;verticalAlign=middle;whiteSpace=wrap;rounded=0;" vertex="1" parent="-EnwCNDstKFtMvuGvvX0-1">
          <mxGeometry x="455" y="400" width="40" height="20" as="geometry" />
        </mxCell>
        <mxCell id="-EnwCNDstKFtMvuGvvX0-24" value="" style="rounded=0;whiteSpace=wrap;html=1;" vertex="1" parent="-EnwCNDstKFtMvuGvvX0-1">
          <mxGeometry x="590" y="400" width="170" height="290" as="geometry" />
        </mxCell>
        <mxCell id="-EnwCNDstKFtMvuGvvX0-25" value="&lt;b&gt;Cart&lt;/b&gt;" style="text;html=1;strokeColor=none;fillColor=none;align=center;verticalAlign=middle;whiteSpace=wrap;rounded=0;" vertex="1" parent="-EnwCNDstKFtMvuGvvX0-1">
          <mxGeometry x="640" y="400" width="40" height="20" as="geometry" />
        </mxCell>
        <mxCell id="-EnwCNDstKFtMvuGvvX0-26" value="" style="verticalLabelPosition=bottom;html=1;verticalAlign=top;align=center;strokeColor=none;fillColor=#00BEF2;shape=mxgraph.azure.mobile;pointerEvents=1;" vertex="1" parent="-EnwCNDstKFtMvuGvvX0-1">
          <mxGeometry x="600" y="450" width="35" height="50" as="geometry" />
        </mxCell>
        <mxCell id="-EnwCNDstKFtMvuGvvX0-27" value="Apple 5G&amp;nbsp; &amp;nbsp; &amp;nbsp;$45/mo&amp;nbsp; &amp;nbsp;" style="text;html=1;strokeColor=none;fillColor=none;align=center;verticalAlign=middle;whiteSpace=wrap;rounded=0;" vertex="1" parent="-EnwCNDstKFtMvuGvvX0-1">
          <mxGeometry x="650" y="455" width="120" height="20" as="geometry" />
        </mxCell>
        <mxCell id="-EnwCNDstKFtMvuGvvX0-28" value="Checkout" style="rounded=0;whiteSpace=wrap;html=1;gradientColor=#97d077;fillColor=#d5e8d4;strokeColor=#82b366;" vertex="1" parent="-EnwCNDstKFtMvuGvvX0-1">
          <mxGeometry x="650" y="620" width="90" height="30" as="geometry" />
        </mxCell>
        <mxCell id="-EnwCNDstKFtMvuGvvX0-29" value="" style="rounded=0;whiteSpace=wrap;html=1;" vertex="1" parent="-EnwCNDstKFtMvuGvvX0-1">
          <mxGeometry x="940" y="400" width="190" height="290" as="geometry" />
        </mxCell>
        <mxCell id="-EnwCNDstKFtMvuGvvX0-30" value="" style="verticalLabelPosition=bottom;html=1;verticalAlign=top;align=center;strokeColor=none;fillColor=#00BEF2;shape=mxgraph.azure.mobile;pointerEvents=1;" vertex="1" parent="-EnwCNDstKFtMvuGvvX0-1">
          <mxGeometry x="950" y="450" width="35" height="50" as="geometry" />
        </mxCell>
        <mxCell id="-EnwCNDstKFtMvuGvvX0-31" value="Apple 5G&amp;nbsp; &amp;nbsp; &amp;nbsp;$45/mo&amp;nbsp; &amp;nbsp;" style="text;html=1;strokeColor=none;fillColor=none;align=center;verticalAlign=middle;whiteSpace=wrap;rounded=0;" vertex="1" parent="-EnwCNDstKFtMvuGvvX0-1">
          <mxGeometry x="1000" y="455" width="120" height="20" as="geometry" />
        </mxCell>
        <mxCell id="-EnwCNDstKFtMvuGvvX0-33" value="Upgrade CTN" style="rounded=1;fillColor=#253858;strokeColor=none;html=1;fontColor=#ffffff;align=left;fontSize=12;spacingLeft=10" vertex="1" parent="-EnwCNDstKFtMvuGvvX0-1">
          <mxGeometry x="1000" y="510" width="110" height="33" as="geometry" />
        </mxCell>
        <mxCell id="-EnwCNDstKFtMvuGvvX0-34" value="" style="shape=triangle;direction=south;fillColor=#ffffff;strokeColor=none;html=1" vertex="1" parent="-EnwCNDstKFtMvuGvvX0-33">
          <mxGeometry x="1" y="0.5" width="12" height="6" relative="1" as="geometry">
            <mxPoint x="-20" y="-3" as="offset" />
          </mxGeometry>
        </mxCell>
        <mxCell id="-EnwCNDstKFtMvuGvvX0-35" value="" style="rounded=1;fillColor=#ffffff;strokeColor=#DFE1E5;shadow=1;html=1;arcSize=4" vertex="1" parent="-EnwCNDstKFtMvuGvvX0-1">
          <mxGeometry x="1000" y="546" width="110" height="104" as="geometry" />
        </mxCell>
        <mxCell id="-EnwCNDstKFtMvuGvvX0-36" value="CTN 1" style="rounded=0;fillColor=#F4F5F7;strokeColor=none;shadow=0;html=1;align=left;fontSize=12;spacingLeft=10;fontColor=#253858;resizeWidth=1" vertex="1" parent="-EnwCNDstKFtMvuGvvX0-35">
          <mxGeometry width="110" height="33" relative="1" as="geometry">
            <mxPoint y="6" as="offset" />
          </mxGeometry>
        </mxCell>
        <mxCell id="-EnwCNDstKFtMvuGvvX0-37" value="CTN 2" style="rounded=0;fillColor=none;strokeColor=none;shadow=0;html=1;align=left;fontSize=12;spacingLeft=10;fontColor=#253858;resizeWidth=1" vertex="1" parent="-EnwCNDstKFtMvuGvvX0-35">
          <mxGeometry width="110" height="33" relative="1" as="geometry">
            <mxPoint y="39" as="offset" />
          </mxGeometry>
        </mxCell>
        <mxCell id="-EnwCNDstKFtMvuGvvX0-38" value="CTN 3" style="rounded=0;fillColor=none;strokeColor=none;shadow=0;html=1;align=left;fontSize=12;spacingLeft=10;fontColor=#253858;resizeWidth=1" vertex="1" parent="-EnwCNDstKFtMvuGvvX0-35">
          <mxGeometry width="110" height="33" relative="1" as="geometry">
            <mxPoint y="72" as="offset" />
          </mxGeometry>
        </mxCell>
        <mxCell id="-EnwCNDstKFtMvuGvvX0-40" value="" style="verticalLabelPosition=bottom;html=1;verticalAlign=top;align=center;strokeColor=none;fillColor=#00BEF2;shape=mxgraph.azure.mobile;pointerEvents=1;" vertex="1" parent="-EnwCNDstKFtMvuGvvX0-1">
          <mxGeometry x="217.5" y="570" width="35" height="50" as="geometry" />
        </mxCell>
        <mxCell id="-EnwCNDstKFtMvuGvvX0-41" value="" style="verticalLabelPosition=bottom;html=1;verticalAlign=top;align=center;strokeColor=none;fillColor=#00BEF2;shape=mxgraph.azure.mobile;pointerEvents=1;" vertex="1" parent="-EnwCNDstKFtMvuGvvX0-1">
          <mxGeometry x="287.5" y="570" width="35" height="50" as="geometry" />
        </mxCell>
        <mxCell id="-EnwCNDstKFtMvuGvvX0-43" value="Submit Order" style="rounded=0;whiteSpace=wrap;html=1;gradientColor=#97d077;fillColor=#d5e8d4;strokeColor=#82b366;" vertex="1" parent="-EnwCNDstKFtMvuGvvX0-1">
          <mxGeometry x="1010" y="660" width="90" height="30" as="geometry" />
        </mxCell>
        <mxCell id="-EnwCNDstKFtMvuGvvX0-44" value="Payment" style="text;html=1;strokeColor=none;fillColor=none;align=center;verticalAlign=middle;whiteSpace=wrap;rounded=0;" vertex="1" parent="-EnwCNDstKFtMvuGvvX0-1">
          <mxGeometry x="960" y="600" width="40" height="20" as="geometry" />
        </mxCell>
        <mxCell id="-EnwCNDstKFtMvuGvvX0-45" value="Terms" style="text;html=1;strokeColor=none;fillColor=none;align=center;verticalAlign=middle;whiteSpace=wrap;rounded=0;" vertex="1" parent="-EnwCNDstKFtMvuGvvX0-1">
          <mxGeometry x="950" y="625" width="40" height="20" as="geometry" />
        </mxCell>
        <mxCell id="-EnwCNDstKFtMvuGvvX0-46" value="1. Upgrade CTN selection would be developed as another panel in checkout.&lt;br&gt;2. It will use UpgradeOptions Ms and CartMs to handle all use cases.&lt;br&gt;2. Account and CTN Status verification happens part of Submit Order process&lt;br&gt;&lt;br&gt;&lt;br&gt;&lt;br&gt;&lt;br&gt;&lt;br&gt;&lt;br&gt;&lt;br&gt;&lt;br&gt;" style="text;html=1;strokeColor=none;fillColor=none;align=left;verticalAlign=middle;whiteSpace=wrap;rounded=0;" vertex="1" parent="-EnwCNDstKFtMvuGvvX0-1">
          <mxGeometry x="1150" y="409" width="230" height="211" as="geometry" />
        </mxCell>
        <mxCell id="-EnwCNDstKFtMvuGvvX0-47" value="" style="rounded=0;whiteSpace=wrap;html=1;strokeColor=#00CC00;strokeWidth=3;" vertex="1" parent="-EnwCNDstKFtMvuGvvX0-1">
          <mxGeometry x="780" y="400" width="150" height="290" as="geometry" />
        </mxCell>
        <mxCell id="-EnwCNDstKFtMvuGvvX0-48" value="&lt;b&gt;Login&lt;br&gt;(Only for UnAuth AL/UP)&lt;/b&gt;" style="text;html=1;strokeColor=none;fillColor=none;align=center;verticalAlign=middle;whiteSpace=wrap;rounded=0;" vertex="1" parent="-EnwCNDstKFtMvuGvvX0-1">
          <mxGeometry x="806" y="414" width="98" height="20" as="geometry" />
        </mxCell>
        <mxCell id="-EnwCNDstKFtMvuGvvX0-49" value="Username" style="strokeWidth=1;shadow=0;dashed=0;align=center;html=1;shape=mxgraph.mockup.text.textBox;fontColor=#666666;align=left;fontSize=17;spacingLeft=4;spacingTop=-3;strokeColor=#666666;mainText=" vertex="1" parent="-EnwCNDstKFtMvuGvvX0-1">
          <mxGeometry x="790" y="475" width="110" height="30" as="geometry" />
        </mxCell>
        <mxCell id="-EnwCNDstKFtMvuGvvX0-50" value="Password" style="strokeWidth=1;shadow=0;dashed=0;align=center;html=1;shape=mxgraph.mockup.text.textBox;fontColor=#666666;align=left;fontSize=17;spacingLeft=4;spacingTop=-3;strokeColor=#666666;mainText=" vertex="1" parent="-EnwCNDstKFtMvuGvvX0-1">
          <mxGeometry x="790" y="513" width="110" height="30" as="geometry" />
        </mxCell>
        <mxCell id="-EnwCNDstKFtMvuGvvX0-51" value="Login" style="rounded=0;whiteSpace=wrap;html=1;gradientColor=#97d077;fillColor=#d5e8d4;strokeColor=#82b366;" vertex="1" parent="-EnwCNDstKFtMvuGvvX0-1">
          <mxGeometry x="810" y="620" width="90" height="30" as="geometry" />
        </mxCell>
        <mxCell id="-EnwCNDstKFtMvuGvvX0-52" value="&lt;b&gt;Checkout&lt;/b&gt;" style="text;html=1;strokeColor=none;fillColor=none;align=center;verticalAlign=middle;whiteSpace=wrap;rounded=0;" vertex="1" parent="-EnwCNDstKFtMvuGvvX0-1">
          <mxGeometry x="1000" y="409" width="40" height="20" as="geometry" />
        </mxCell>
        <mxCell id="-EnwCNDstKFtMvuGvvX0-53" value="Actor" style="shape=umlActor;verticalLabelPosition=bottom;labelBackgroundColor=#ffffff;verticalAlign=top;html=1;outlineConnect=0;strokeColor=#00CC00;strokeWidth=3;" vertex="1" parent="-EnwCNDstKFtMvuGvvX0-1">
          <mxGeometry x="43" y="525" width="30" height="60" as="geometry" />
        </mxCell>
        <mxCell id="-EnwCNDstKFtMvuGvvX0-54" value="" style="endArrow=classic;html=1;strokeWidth=1;" edge="1" parent="-EnwCNDstKFtMvuGvvX0-1">
          <mxGeometry width="50" height="50" relative="1" as="geometry">
            <mxPoint x="90" y="557" as="sourcePoint" />
            <mxPoint x="168" y="557" as="targetPoint" />
          </mxGeometry>
        </mxCell>
      </root>
    </mxGraphModel>
  </diagram>
</mxfile>
